<svg width="168" height="16" viewBox="0 0 168 16" fill="none" xmlns="http://www.w3.org/2000/svg">
<path d="M0.958807 13V4.27273H6.37074V5.40625H2.27557V8.06534H5.98295V9.1946H2.27557V13H0.958807ZM10.2763 13.1321C9.63145 13.1321 9.07605 12.9943 8.61014 12.7188C8.14708 12.4403 7.78912 12.0497 7.53628 11.5469C7.28628 11.0412 7.16128 10.4489 7.16128 9.76989C7.16128 9.09943 7.28628 8.50852 7.53628 7.99716C7.78912 7.4858 8.14139 7.08665 8.5931 6.79972C9.04764 6.51278 9.57889 6.36932 10.1868 6.36932C10.5562 6.36932 10.9141 6.4304 11.2607 6.55256C11.6073 6.67472 11.9184 6.86648 12.194 7.12784C12.4695 7.3892 12.6868 7.72869 12.8459 8.14631C13.005 8.56108 13.0846 9.06534 13.0846 9.65909V10.1108H7.88145V9.15625H11.836C11.836 8.82102 11.7678 8.52415 11.6315 8.26562C11.4951 8.00426 11.3033 7.7983 11.0562 7.64773C10.8118 7.49716 10.5249 7.42188 10.1954 7.42188C9.83742 7.42188 9.52492 7.50994 9.25787 7.68608C8.99367 7.85937 8.78912 8.08665 8.64424 8.3679C8.50219 8.64631 8.43117 8.94886 8.43117 9.27557V10.0213C8.43117 10.4588 8.50787 10.831 8.66128 11.1378C8.81753 11.4446 9.03486 11.679 9.31327 11.8409C9.59168 12 9.91696 12.0795 10.2891 12.0795C10.5306 12.0795 10.7508 12.0455 10.9496 11.9773C11.1485 11.9062 11.3204 11.8011 11.4653 11.6619C11.6101 11.5227 11.7209 11.3509 11.7976 11.1463L13.0036 11.3636C12.907 11.7187 12.7337 12.0298 12.4837 12.2969C12.2366 12.5611 11.9255 12.767 11.5505 12.9148C11.1783 13.0597 10.7536 13.1321 10.2763 13.1321ZM14.5463 13V6.45455H15.8204V13H14.5463ZM15.1897 5.4446C14.9682 5.4446 14.7778 5.37074 14.6187 5.22301C14.4625 5.07244 14.3844 4.89347 14.3844 4.68608C14.3844 4.47585 14.4625 4.29687 14.6187 4.14915C14.7778 3.99858 14.9682 3.9233 15.1897 3.9233C15.4113 3.9233 15.6003 3.99858 15.7565 4.14915C15.9156 4.29687 15.9951 4.47585 15.9951 4.68608C15.9951 4.89347 15.9156 5.07244 15.7565 5.22301C15.6003 5.37074 15.4113 5.4446 15.1897 5.4446ZM20.638 6.45455V7.47727H17.0627V6.45455H20.638ZM18.0215 4.88636H19.2956V11.0781C19.2956 11.3253 19.3326 11.5114 19.4064 11.6364C19.4803 11.7585 19.5755 11.8423 19.6919 11.8878C19.8113 11.9304 19.9405 11.9517 20.0797 11.9517C20.182 11.9517 20.2715 11.9446 20.3482 11.9304C20.4249 11.9162 20.4846 11.9048 20.5272 11.8963L20.7573 12.9489C20.6834 12.9773 20.5783 13.0057 20.4419 13.0341C20.3056 13.0653 20.1351 13.0824 19.9306 13.0852C19.5953 13.0909 19.2828 13.0312 18.9931 12.9062C18.7033 12.7812 18.4689 12.5881 18.29 12.3267C18.111 12.0653 18.0215 11.7372 18.0215 11.3423V4.88636ZM24.7822 13.1321C24.1686 13.1321 23.6331 12.9915 23.1757 12.7102C22.7183 12.429 22.3632 12.0355 22.1103 11.5298C21.8575 11.0241 21.7311 10.4332 21.7311 9.7571C21.7311 9.07812 21.8575 8.48437 22.1103 7.97585C22.3632 7.46733 22.7183 7.07244 23.1757 6.79119C23.6331 6.50994 24.1686 6.36932 24.7822 6.36932C25.3958 6.36932 25.9313 6.50994 26.3887 6.79119C26.8461 7.07244 27.2012 7.46733 27.4541 7.97585C27.7069 8.48437 27.8333 9.07812 27.8333 9.7571C27.8333 10.4332 27.7069 11.0241 27.4541 11.5298C27.2012 12.0355 26.8461 12.429 26.3887 12.7102C25.9313 12.9915 25.3958 13.1321 24.7822 13.1321ZM24.7865 12.0625C25.1842 12.0625 25.5137 11.9574 25.7751 11.7472C26.0365 11.5369 26.2296 11.2571 26.3546 10.9077C26.4825 10.5582 26.5464 10.1733 26.5464 9.75284C26.5464 9.33523 26.4825 8.9517 26.3546 8.60227C26.2296 8.25 26.0365 7.96733 25.7751 7.75426C25.5137 7.54119 25.1842 7.43466 24.7865 7.43466C24.3859 7.43466 24.0535 7.54119 23.7893 7.75426C23.5279 7.96733 23.3333 8.25 23.2055 8.60227C23.0805 8.9517 23.018 9.33523 23.018 9.75284C23.018 10.1733 23.0805 10.5582 23.2055 10.9077C23.3333 11.2571 23.5279 11.5369 23.7893 11.7472C24.0535 11.9574 24.3859 12.0625 24.7865 12.0625ZM35.2844 13.1321C34.6509 13.1321 34.1055 12.9886 33.6481 12.7017C33.1935 12.4119 32.8441 12.0128 32.5998 11.5043C32.3555 10.9957 32.2333 10.4134 32.2333 9.7571C32.2333 9.09233 32.3583 8.50568 32.6083 7.99716C32.8583 7.4858 33.2106 7.08665 33.6651 6.79972C34.1197 6.51278 34.6552 6.36932 35.2717 6.36932C35.7688 6.36932 36.212 6.46165 36.6012 6.64631C36.9904 6.82812 37.3043 7.08381 37.543 7.41335C37.7844 7.7429 37.9279 8.12784 37.9734 8.56818H36.7333C36.6651 8.26136 36.5089 7.99716 36.2646 7.77557C36.0231 7.55398 35.6992 7.44318 35.293 7.44318C34.9379 7.44318 34.6268 7.53693 34.3597 7.72443C34.0955 7.90909 33.8896 8.1733 33.7418 8.51705C33.5941 8.85795 33.5202 9.26136 33.5202 9.72727C33.5202 10.2045 33.5927 10.6165 33.7376 10.9631C33.8825 11.3097 34.087 11.5781 34.3512 11.7685C34.6183 11.9588 34.9322 12.054 35.293 12.054C35.5344 12.054 35.7532 12.0099 35.9492 11.9219C36.1481 11.831 36.3143 11.7017 36.4478 11.5341C36.5842 11.3665 36.6793 11.1648 36.7333 10.929H37.9734C37.9279 11.3523 37.7901 11.7301 37.56 12.0625C37.3299 12.3949 37.0217 12.6562 36.6353 12.8466C36.2518 13.0369 35.8015 13.1321 35.2844 13.1321ZM42.141 13.1321C41.5274 13.1321 40.9919 12.9915 40.5345 12.7102C40.0771 12.429 39.722 12.0355 39.4692 11.5298C39.2163 11.0241 39.0899 10.4332 39.0899 9.7571C39.0899 9.07812 39.2163 8.48437 39.4692 7.97585C39.722 7.46733 40.0771 7.07244 40.5345 6.79119C40.9919 6.50994 41.5274 6.36932 42.141 6.36932C42.7547 6.36932 43.2902 6.50994 43.7476 6.79119C44.205 7.07244 44.5601 7.46733 44.8129 7.97585C45.0658 8.48437 45.1922 9.07812 45.1922 9.7571C45.1922 10.4332 45.0658 11.0241 44.8129 11.5298C44.5601 12.0355 44.205 12.429 43.7476 12.7102C43.2902 12.9915 42.7547 13.1321 42.141 13.1321ZM42.1453 12.0625C42.543 12.0625 42.8726 11.9574 43.1339 11.7472C43.3953 11.5369 43.5885 11.2571 43.7135 10.9077C43.8413 10.5582 43.9052 10.1733 43.9052 9.75284C43.9052 9.33523 43.8413 8.9517 43.7135 8.60227C43.5885 8.25 43.3953 7.96733 43.1339 7.75426C42.8726 7.54119 42.543 7.43466 42.1453 7.43466C41.7447 7.43466 41.4123 7.54119 41.1481 7.75426C40.8868 7.96733 40.6922 8.25 40.5643 8.60227C40.4393 8.9517 40.3768 9.33523 40.3768 9.75284C40.3768 10.1733 40.4393 10.5582 40.5643 10.9077C40.6922 11.2571 40.8868 11.5369 41.1481 11.7472C41.4123 11.9574 41.7447 12.0625 42.1453 12.0625ZM46.6624 13V6.45455H47.8854V7.51989H47.9664C48.1027 7.15909 48.3258 6.87784 48.6354 6.67614C48.9451 6.47159 49.3158 6.36932 49.7476 6.36932C50.1851 6.36932 50.5516 6.47159 50.8471 6.67614C51.1454 6.88068 51.3655 7.16193 51.5076 7.51989H51.5758C51.732 7.17045 51.9806 6.89205 52.3215 6.68466C52.6624 6.47443 53.0687 6.36932 53.5402 6.36932C54.134 6.36932 54.6184 6.5554 54.9934 6.92756C55.3712 7.29972 55.5601 7.8608 55.5601 8.6108V13H54.286V8.73011C54.286 8.28693 54.1652 7.96591 53.9238 7.76705C53.6823 7.56818 53.3939 7.46875 53.0587 7.46875C52.6439 7.46875 52.3215 7.59659 52.0914 7.85227C51.8613 8.10511 51.7462 8.4304 51.7462 8.82812V13H50.4763V8.64915C50.4763 8.29403 50.3655 8.00852 50.1439 7.79261C49.9224 7.5767 49.634 7.46875 49.2789 7.46875C49.0374 7.46875 48.8144 7.53267 48.6099 7.66051C48.4081 7.78551 48.2448 7.96023 48.1198 8.18466C47.9976 8.40909 47.9366 8.66903 47.9366 8.96449V13H46.6624ZM60.669 13.91H73.669V0.91H60.669V13.91ZM78.5142 15.4545V6.45455H79.7585V7.51562H79.8651C79.9389 7.37926 80.0455 7.22159 80.1847 7.04261C80.3239 6.86364 80.517 6.70739 80.7642 6.57386C81.0114 6.4375 81.3381 6.36932 81.7443 6.36932C82.2727 6.36932 82.7443 6.50284 83.1591 6.76989C83.5739 7.03693 83.8991 7.42187 84.1349 7.92472C84.3736 8.42756 84.4929 9.03267 84.4929 9.74006C84.4929 10.4474 84.375 11.054 84.1392 11.5597C83.9034 12.0625 83.5795 12.4503 83.1676 12.723C82.7557 12.9929 82.2855 13.1278 81.7571 13.1278C81.3594 13.1278 81.0341 13.0611 80.7812 12.9276C80.5312 12.794 80.3352 12.6378 80.1932 12.4588C80.0511 12.2798 79.9418 12.1207 79.8651 11.9815H79.7884V15.4545H78.5142ZM79.7628 9.72727C79.7628 10.1875 79.8295 10.5909 79.9631 10.9375C80.0966 11.2841 80.2898 11.5554 80.5426 11.7514C80.7955 11.9446 81.1051 12.0412 81.4716 12.0412C81.8523 12.0412 82.1705 11.9403 82.4261 11.7386C82.6818 11.5341 82.875 11.2571 83.0057 10.9077C83.1392 10.5582 83.206 10.1648 83.206 9.72727C83.206 9.29545 83.1406 8.90767 83.0099 8.56392C82.8821 8.22017 82.6889 7.94886 82.4304 7.75C82.1747 7.55114 81.8551 7.4517 81.4716 7.4517C81.1023 7.4517 80.7898 7.54687 80.5341 7.73722C80.2812 7.92756 80.0895 8.19318 79.9588 8.53409C79.8281 8.875 79.7628 9.27273 79.7628 9.72727ZM88.7256 13.1321C88.1119 13.1321 87.5764 12.9915 87.119 12.7102C86.6616 12.429 86.3065 12.0355 86.0537 11.5298C85.8008 11.0241 85.6744 10.4332 85.6744 9.7571C85.6744 9.07812 85.8008 8.48437 86.0537 7.97585C86.3065 7.46733 86.6616 7.07244 87.119 6.79119C87.5764 6.50994 88.1119 6.36932 88.7256 6.36932C89.3392 6.36932 89.8747 6.50994 90.3321 6.79119C90.7895 7.07244 91.1446 7.46733 91.3974 7.97585C91.6503 8.48437 91.7767 9.07812 91.7767 9.7571C91.7767 10.4332 91.6503 11.0241 91.3974 11.5298C91.1446 12.0355 90.7895 12.429 90.3321 12.7102C89.8747 12.9915 89.3392 13.1321 88.7256 13.1321ZM88.7298 12.0625C89.1275 12.0625 89.4571 11.9574 89.7185 11.7472C89.9798 11.5369 90.173 11.2571 90.298 10.9077C90.4258 10.5582 90.4898 10.1733 90.4898 9.75284C90.4898 9.33523 90.4258 8.9517 90.298 8.60227C90.173 8.25 89.9798 7.96733 89.7185 7.75426C89.4571 7.54119 89.1275 7.43466 88.7298 7.43466C88.3293 7.43466 87.9969 7.54119 87.7327 7.75426C87.4713 7.96733 87.2767 8.25 87.1489 8.60227C87.0239 8.9517 86.9614 9.33523 86.9614 9.75284C86.9614 10.1733 87.0239 10.5582 87.1489 10.9077C87.2767 11.2571 87.4713 11.5369 87.7327 11.7472C87.9969 11.9574 88.3293 12.0625 88.7298 12.0625ZM93.2469 13V6.45455H94.4785V7.49432H94.5466C94.666 7.14205 94.8762 6.86506 95.1773 6.66335C95.4813 6.45881 95.825 6.35653 96.2086 6.35653C96.2881 6.35653 96.3819 6.35937 96.4898 6.36506C96.6006 6.37074 96.6873 6.37784 96.7498 6.38636V7.60511C96.6986 7.59091 96.6077 7.57528 96.477 7.55824C96.3464 7.53835 96.2157 7.52841 96.085 7.52841C95.7839 7.52841 95.5154 7.59233 95.2796 7.72017C95.0466 7.84517 94.862 8.01989 94.7256 8.24432C94.5893 8.46591 94.5211 8.71875 94.5211 9.00284V13H93.2469ZM105.986 6.56534C105.941 6.16193 105.753 5.84943 105.424 5.62784C105.094 5.40341 104.68 5.29119 104.18 5.29119C103.822 5.29119 103.512 5.34801 103.251 5.46165C102.989 5.57244 102.786 5.72585 102.641 5.92188C102.499 6.11506 102.428 6.33523 102.428 6.58239C102.428 6.78977 102.476 6.96875 102.573 7.11932C102.672 7.26989 102.802 7.39631 102.961 7.49858C103.123 7.59801 103.296 7.68182 103.481 7.75C103.665 7.81534 103.843 7.86932 104.013 7.91193L104.866 8.13352C105.144 8.2017 105.43 8.29403 105.722 8.41051C106.015 8.52699 106.286 8.6804 106.536 8.87074C106.786 9.06108 106.988 9.29688 107.141 9.57812C107.297 9.85938 107.376 10.196 107.376 10.5881C107.376 11.0824 107.248 11.5213 106.992 11.9048C106.739 12.2884 106.371 12.5909 105.888 12.8125C105.408 13.0341 104.827 13.1449 104.145 13.1449C103.492 13.1449 102.927 13.0412 102.449 12.8338C101.972 12.6264 101.599 12.3324 101.329 11.9517C101.059 11.5682 100.91 11.1136 100.881 10.5881H102.202C102.228 10.9034 102.33 11.1662 102.509 11.3764C102.691 11.5838 102.922 11.7386 103.204 11.8409C103.488 11.9403 103.799 11.9901 104.137 11.9901C104.509 11.9901 104.84 11.9318 105.13 11.8153C105.422 11.696 105.653 11.5312 105.82 11.321C105.988 11.108 106.072 10.8594 106.072 10.5753C106.072 10.3168 105.998 10.1051 105.85 9.94034C105.705 9.77557 105.508 9.6392 105.258 9.53125C105.011 9.4233 104.731 9.32812 104.418 9.24574L103.387 8.96449C102.688 8.77415 102.134 8.49432 101.725 8.125C101.319 7.75568 101.116 7.26705 101.116 6.65909C101.116 6.15625 101.252 5.71733 101.525 5.34233C101.797 4.96733 102.167 4.67614 102.633 4.46875C103.099 4.25852 103.624 4.15341 104.209 4.15341C104.8 4.15341 105.322 4.2571 105.773 4.46449C106.228 4.67188 106.586 4.95739 106.847 5.32102C107.109 5.68182 107.245 6.09659 107.256 6.56534H105.986ZM113.041 10.2855V6.45455H114.32V13H113.067V11.8665H112.999C112.848 12.2159 112.606 12.5071 112.274 12.7401C111.945 12.9702 111.534 13.0852 111.043 13.0852C110.622 13.0852 110.25 12.9929 109.926 12.8082C109.605 12.6207 109.352 12.3438 109.168 11.9773C108.986 11.6108 108.895 11.1577 108.895 10.6179V6.45455H110.169V10.4645C110.169 10.9105 110.293 11.2656 110.54 11.5298C110.787 11.794 111.108 11.9261 111.503 11.9261C111.741 11.9261 111.979 11.8665 112.214 11.7472C112.453 11.6278 112.651 11.4474 112.807 11.206C112.966 10.9645 113.044 10.6577 113.041 10.2855ZM118.901 13.1321C118.256 13.1321 117.7 12.9943 117.234 12.7188C116.771 12.4403 116.413 12.0497 116.161 11.5469C115.911 11.0412 115.786 10.4489 115.786 9.76989C115.786 9.09943 115.911 8.50852 116.161 7.99716C116.413 7.4858 116.766 7.08665 117.217 6.79972C117.672 6.51278 118.203 6.36932 118.811 6.36932C119.18 6.36932 119.538 6.4304 119.885 6.55256C120.232 6.67472 120.543 6.86648 120.818 7.12784C121.094 7.3892 121.311 7.72869 121.47 8.14631C121.629 8.56108 121.709 9.06534 121.709 9.65909V10.1108H116.506V9.15625H120.46C120.46 8.82102 120.392 8.52415 120.256 8.26562C120.119 8.00426 119.928 7.7983 119.68 7.64773C119.436 7.49716 119.149 7.42188 118.82 7.42188C118.462 7.42188 118.149 7.50994 117.882 7.68608C117.618 7.85937 117.413 8.08665 117.268 8.3679C117.126 8.64631 117.055 8.94886 117.055 9.27557V10.0213C117.055 10.4588 117.132 10.831 117.286 11.1378C117.442 11.4446 117.659 11.679 117.938 11.8409C118.216 12 118.541 12.0795 118.913 12.0795C119.155 12.0795 119.375 12.0455 119.574 11.9773C119.773 11.9062 119.945 11.8011 120.089 11.6619C120.234 11.5227 120.345 11.3509 120.422 11.1463L121.628 11.3636C121.531 11.7187 121.358 12.0298 121.108 12.2969C120.861 12.5611 120.55 12.767 120.175 12.9148C119.803 13.0597 119.378 13.1321 118.901 13.1321ZM124.445 4.27273V13H123.171V4.27273H124.445ZM129.028 13.1321C128.383 13.1321 127.828 12.9943 127.362 12.7188C126.899 12.4403 126.541 12.0497 126.288 11.5469C126.038 11.0412 125.913 10.4489 125.913 9.76989C125.913 9.09943 126.038 8.50852 126.288 7.99716C126.541 7.4858 126.893 7.08665 127.345 6.79972C127.799 6.51278 128.33 6.36932 128.938 6.36932C129.308 6.36932 129.666 6.4304 130.012 6.55256C130.359 6.67472 130.67 6.86648 130.945 7.12784C131.221 7.3892 131.438 7.72869 131.597 8.14631C131.757 8.56108 131.836 9.06534 131.836 9.65909V10.1108H126.633V9.15625H130.587C130.587 8.82102 130.519 8.52415 130.383 8.26562C130.247 8.00426 130.055 7.7983 129.808 7.64773C129.563 7.49716 129.276 7.42188 128.947 7.42188C128.589 7.42188 128.276 7.50994 128.009 7.68608C127.745 7.85937 127.541 8.08665 127.396 8.3679C127.254 8.64631 127.183 8.94886 127.183 9.27557V10.0213C127.183 10.4588 127.259 10.831 127.413 11.1378C127.569 11.4446 127.786 11.679 128.065 11.8409C128.343 12 128.668 12.0795 129.041 12.0795C129.282 12.0795 129.502 12.0455 129.701 11.9773C129.9 11.9062 130.072 11.8011 130.217 11.6619C130.362 11.5227 130.472 11.3509 130.549 11.1463L131.755 11.3636C131.659 11.7187 131.485 12.0298 131.235 12.2969C130.988 12.5611 130.677 12.767 130.302 12.9148C129.93 13.0597 129.505 13.1321 129.028 13.1321ZM134.572 9.11364V13H133.298V6.45455H134.521V7.51989H134.602C134.752 7.1733 134.988 6.89489 135.309 6.68466C135.633 6.47443 136.041 6.36932 136.532 6.36932C136.978 6.36932 137.369 6.46307 137.704 6.65057C138.039 6.83523 138.299 7.1108 138.484 7.47727C138.669 7.84375 138.761 8.29687 138.761 8.83665V13H137.487V8.99006C137.487 8.51562 137.363 8.14489 137.116 7.87784C136.869 7.60795 136.529 7.47301 136.097 7.47301C135.802 7.47301 135.539 7.53693 135.309 7.66477C135.082 7.79261 134.901 7.98011 134.768 8.22727C134.637 8.47159 134.572 8.76705 134.572 9.11364ZM146.669 13H143.844V4.27273H146.758C147.614 4.27273 148.348 4.44744 148.962 4.79688C149.575 5.14347 150.045 5.64205 150.372 6.29261C150.702 6.94034 150.866 7.71733 150.866 8.62358C150.866 9.53267 150.7 10.3139 150.368 10.9673C150.038 11.6207 149.561 12.1236 148.936 12.4759C148.311 12.8253 147.555 13 146.669 13ZM145.16 11.8494H146.597C147.261 11.8494 147.814 11.7244 148.254 11.4744C148.695 11.2216 149.024 10.8565 149.243 10.3793C149.462 9.89915 149.571 9.31392 149.571 8.62358C149.571 7.93892 149.462 7.35795 149.243 6.88068C149.027 6.40341 148.704 6.04119 148.276 5.79403C147.847 5.54687 147.314 5.4233 146.678 5.4233H145.16V11.8494ZM152.45 13V6.45455H153.724V13H152.45ZM153.093 5.4446C152.871 5.4446 152.681 5.37074 152.522 5.22301C152.366 5.07244 152.288 4.89347 152.288 4.68608C152.288 4.47585 152.366 4.29687 152.522 4.14915C152.681 3.99858 152.871 3.9233 153.093 3.9233C153.315 3.9233 153.504 3.99858 153.66 4.14915C153.819 4.29687 153.898 4.47585 153.898 4.68608C153.898 4.89347 153.819 5.07244 153.66 5.22301C153.504 5.37074 153.315 5.4446 153.093 5.4446ZM157.391 13.1449C156.976 13.1449 156.601 13.0682 156.266 12.9148C155.93 12.7585 155.665 12.5327 155.469 12.2372C155.276 11.9418 155.179 11.5795 155.179 11.1506C155.179 10.7812 155.25 10.4773 155.392 10.2386C155.534 10 155.726 9.81108 155.967 9.67188C156.209 9.53267 156.479 9.42756 156.777 9.35653C157.075 9.28551 157.379 9.23153 157.689 9.1946C158.081 9.14915 158.399 9.11222 158.644 9.08381C158.888 9.05256 159.065 9.00284 159.176 8.93466C159.287 8.86648 159.342 8.75568 159.342 8.60227V8.57244C159.342 8.20028 159.237 7.91193 159.027 7.70739C158.82 7.50284 158.51 7.40057 158.098 7.40057C157.669 7.40057 157.331 7.49574 157.084 7.68608C156.84 7.87358 156.671 8.08239 156.577 8.3125L155.379 8.03977C155.521 7.64205 155.729 7.32102 156.001 7.0767C156.277 6.82955 156.594 6.65057 156.952 6.53977C157.31 6.42614 157.686 6.36932 158.081 6.36932C158.342 6.36932 158.619 6.40057 158.912 6.46307C159.207 6.52273 159.483 6.63352 159.739 6.79545C159.997 6.95739 160.209 7.18892 160.374 7.49006C160.538 7.78835 160.621 8.17614 160.621 8.65341V13H159.376V12.1051H159.325C159.243 12.2699 159.119 12.4318 158.955 12.5909C158.79 12.75 158.578 12.8821 158.32 12.9872C158.061 13.0923 157.751 13.1449 157.391 13.1449ZM157.668 12.1222C158.02 12.1222 158.321 12.0526 158.571 11.9134C158.824 11.7741 159.016 11.5923 159.146 11.3679C159.28 11.1406 159.347 10.8977 159.347 10.6392V9.79545C159.301 9.84091 159.213 9.88352 159.082 9.9233C158.955 9.96023 158.808 9.9929 158.644 10.0213C158.479 10.0469 158.318 10.071 158.162 10.0938C158.006 10.1136 157.875 10.1307 157.77 10.1449C157.523 10.1761 157.297 10.2287 157.092 10.3026C156.891 10.3764 156.729 10.483 156.607 10.6222C156.487 10.7585 156.428 10.9403 156.428 11.1676C156.428 11.483 156.544 11.7216 156.777 11.8835C157.01 12.0426 157.307 12.1222 157.668 12.1222ZM167.271 8.05256L166.116 8.2571C166.068 8.10937 165.991 7.96875 165.886 7.83523C165.784 7.7017 165.644 7.59233 165.468 7.5071C165.292 7.42187 165.072 7.37926 164.808 7.37926C164.447 7.37926 164.146 7.46023 163.904 7.62216C163.663 7.78125 163.542 7.98722 163.542 8.24006C163.542 8.45881 163.623 8.63494 163.785 8.76847C163.947 8.90199 164.208 9.01136 164.569 9.09659L165.609 9.33523C166.211 9.47443 166.66 9.68892 166.955 9.97869C167.251 10.2685 167.399 10.6449 167.399 11.108C167.399 11.5 167.285 11.8494 167.058 12.1562C166.833 12.4602 166.519 12.6989 166.116 12.8722C165.715 13.0455 165.251 13.1321 164.722 13.1321C163.989 13.1321 163.391 12.9759 162.928 12.6634C162.465 12.348 162.181 11.9006 162.076 11.321L163.308 11.1335C163.384 11.4545 163.542 11.6974 163.781 11.8622C164.019 12.0241 164.33 12.1051 164.714 12.1051C165.132 12.1051 165.465 12.0185 165.715 11.8452C165.965 11.669 166.09 11.4545 166.09 11.2017C166.09 10.9972 166.014 10.8253 165.86 10.6861C165.71 10.5469 165.478 10.4418 165.166 10.3707L164.058 10.1278C163.447 9.98864 162.995 9.76705 162.703 9.46307C162.413 9.15909 162.268 8.77415 162.268 8.30824C162.268 7.92187 162.376 7.58381 162.592 7.29403C162.808 7.00426 163.106 6.77841 163.487 6.61648C163.867 6.4517 164.303 6.36932 164.795 6.36932C165.502 6.36932 166.059 6.52273 166.465 6.82955C166.872 7.13352 167.14 7.54119 167.271 8.05256Z" fill="#1B1B1B"/>
</svg>
