<svg width="40" height="32" viewBox="0 0 40 32" fill="none" xmlns="http://www.w3.org/2000/svg">
<path d="M25.3125 10C25.3125 9.75136 25.4113 9.5129 25.5871 9.33709C25.7629 9.16127 26.0014 9.0625 26.25 9.0625H36.25C36.4986 9.0625 36.7371 9.16127 36.9129 9.33709C37.0887 9.5129 37.1875 9.75136 37.1875 10C37.1875 10.2486 37.0887 10.4871 36.9129 10.6629C36.7371 10.8387 36.4986 10.9375 36.25 10.9375H26.25C26.0014 10.9375 25.7629 10.8387 25.5871 10.6629C25.4113 10.4871 25.3125 10.2486 25.3125 10ZM38.4375 21.25C38.4375 21.4986 38.3387 21.7371 38.1629 21.9129C37.9871 22.0887 37.7486 22.1875 37.5 22.1875H26.0156C26.2386 23.4138 26.8845 24.5232 27.8408 25.3226C28.7972 26.1219 30.0036 26.5607 31.25 26.5625C31.9479 26.5669 32.6396 26.4308 33.2838 26.1624C33.928 25.8939 34.5117 25.4986 35 25C35.1779 24.8272 35.4161 24.7306 35.6641 24.7306C35.912 24.7306 36.1502 24.8272 36.3281 25C36.4174 25.086 36.4885 25.1891 36.537 25.3032C36.5856 25.4173 36.6106 25.5401 36.6106 25.6641C36.6106 25.7881 36.5856 25.9108 36.537 26.0249C36.4885 26.139 36.4174 26.2421 36.3281 26.3281C35.1513 27.503 33.6034 28.2335 31.9483 28.3951C30.2932 28.5566 28.6333 28.1393 27.2514 27.2141C25.8695 26.289 24.8512 24.9133 24.37 23.3214C23.8888 21.7296 23.9744 20.0202 24.6124 18.4844C25.2503 16.9487 26.401 15.6816 27.8684 14.8993C29.3359 14.1169 31.0292 13.8675 32.6599 14.1937C34.2905 14.5199 35.7576 15.4015 36.8112 16.6882C37.8647 17.9748 38.4394 19.587 38.4375 21.25V21.25ZM36.4844 20.3125C36.2705 19.0793 35.6282 17.9613 34.6706 17.1554C33.7129 16.3496 32.5016 15.9077 31.25 15.9077C29.9984 15.9077 28.7871 16.3496 27.8295 17.1554C26.8718 17.9613 26.2295 19.0793 26.0156 20.3125H36.4844ZM21.5625 22.1875C21.5625 23.8451 20.904 25.4348 19.7319 26.6069C18.5598 27.779 16.9701 28.4375 15.3125 28.4375H5C4.75136 28.4375 4.5129 28.3387 4.33709 28.1629C4.16127 27.9871 4.0625 27.7486 4.0625 27.5V7.5C4.0625 7.25136 4.16127 7.0129 4.33709 6.83709C4.5129 6.66127 4.75136 6.5625 5 6.5625H13.4375C14.5624 6.56234 15.6615 6.89945 16.5928 7.53028C17.5241 8.16111 18.2449 9.05668 18.6621 10.1013C19.0793 11.146 19.1737 12.2917 18.9331 13.3906C18.6925 14.4894 18.128 15.4909 17.3125 16.2656C18.5514 16.6841 19.6278 17.4805 20.3902 18.5429C21.1526 19.6052 21.5626 20.8799 21.5625 22.1875V22.1875ZM5.9375 15.9375H13.4375C14.4321 15.9375 15.3859 15.5424 16.0892 14.8392C16.7924 14.1359 17.1875 13.1821 17.1875 12.1875C17.1875 11.1929 16.7924 10.2391 16.0892 9.53585C15.3859 8.83259 14.4321 8.4375 13.4375 8.4375H5.9375V15.9375ZM19.6875 22.1875C19.6834 21.0284 19.2211 19.918 18.4015 19.0985C17.582 18.2789 16.4716 17.8166 15.3125 17.8125H5.9375V26.5625H15.3125C16.4716 26.5584 17.582 26.0961 18.4015 25.2765C19.2211 24.457 19.6834 23.3466 19.6875 22.1875V22.1875Z" fill="#01018F"/>
</svg>
